<svg width="250" height="250" viewBox="0 0 250 250" fill="none" xmlns="http://www.w3.org/2000/svg">
<path d="M125 250C194.036 250 250 194.036 250 125C250 55.9644 194.036 0 125 0C55.9649 0 0.000488281 55.9644 0.000488281 125C0.000488281 194.036 55.9649 250 125 250Z" fill="#9147FF"/>
<path d="M36.0004 82.0049C95.6657 82.0037 155.332 82.0134 214.999 82C215 110.64 215.001 139.28 214.998 167.92C203.385 166.053 191.719 164.49 180.011 163.345C137.762 159.159 95.0287 159.86 52.9407 165.432C47.28 166.164 41.639 167.038 36.0004 167.916C35.9991 139.279 36.0016 110.642 36.0004 82.0049ZM41.269 87.2639C41.2715 112.103 41.269 136.943 41.269 161.782C96.9899 153.271 154.01 153.264 209.73 161.784C209.734 136.943 209.731 112.102 209.731 87.2602C153.577 87.2688 97.4223 87.2626 41.269 87.2639Z" fill="black"/>
<path d="M79.7976 106.799C83.4493 103.251 88.5722 101.361 93.6461 101.441C97.1103 101.428 100.647 101.97 103.762 103.548C105.368 104.348 106.835 105.396 108.205 106.549C106.481 108.626 104.743 110.69 103.039 112.781C102.014 112.015 101.017 111.197 99.8825 110.591C97.6052 109.308 94.9225 108.864 92.3341 109.053C89.1663 109.323 86.268 111.229 84.5518 113.868C82.3395 117.183 81.9953 121.546 83.3354 125.259C84.1463 127.514 85.6947 129.515 87.7343 130.793C89.7629 132.093 92.2263 132.615 94.6175 132.472C97.0699 132.378 99.5664 131.711 101.563 130.248C101.544 128.487 101.563 126.726 101.553 124.965C98.8057 124.973 96.0568 124.963 93.3092 124.97C93.3031 122.608 93.3239 120.247 93.2994 117.886C98.704 117.852 104.11 117.898 109.515 117.863C109.548 123.255 109.511 128.649 109.533 134.041C105.813 137.246 101.117 139.349 96.2136 139.827C91.4264 140.351 86.3795 139.472 82.2991 136.838C79.0296 134.758 76.5037 131.569 75.1819 127.936C73.8773 124.361 73.6201 120.423 74.3526 116.697C75.1158 112.951 77.0243 109.439 79.7976 106.799Z" fill="black"/>
<path d="M55.9409 102.081C58.6812 102.087 61.4215 102.076 64.1618 102.087C64.1556 114.493 64.1618 126.899 64.1593 139.306C61.4203 139.305 58.6812 139.301 55.9421 139.307C55.9409 126.899 55.9434 114.49 55.9409 102.081Z" fill="black"/>
<path d="M119.521 102.082C124.533 102.084 129.546 102.082 134.558 102.084C139.115 102.134 143.73 103.544 147.296 106.428C150.413 108.916 152.625 112.494 153.467 116.387C154.488 121.089 153.823 126.216 151.293 130.351C149.285 133.685 146.132 136.28 142.528 137.736C140.004 138.759 137.28 139.297 134.555 139.305C129.545 139.305 124.533 139.302 119.522 139.306C119.522 126.898 119.524 114.49 119.521 102.082ZM127.765 109.476C127.752 116.955 127.766 124.434 127.757 131.914C129.33 131.911 130.904 131.913 132.477 131.913C133.744 131.903 135.022 131.972 136.276 131.74C138.734 131.359 141.104 130.179 142.729 128.276C144.15 126.645 144.976 124.553 145.224 122.42C145.456 120.254 145.272 118.01 144.431 115.985C143.565 113.834 141.945 111.993 139.899 110.889C138.052 109.862 135.918 109.474 133.821 109.473C131.802 109.478 129.783 109.473 127.765 109.476Z" fill="black"/>
<path d="M163.319 102.105C168.384 102.052 173.454 102.098 178.521 102.082C179.912 102.102 181.307 102.025 182.694 102.168C185.158 102.396 187.654 103.114 189.625 104.658C191.339 105.977 192.542 107.946 192.874 110.087C193.114 112.111 193.002 114.267 192.004 116.093C191.155 117.729 189.693 118.945 188.12 119.857C190.216 120.644 192.288 121.805 193.593 123.678C194.809 125.408 195.165 127.593 195.046 129.667C194.997 131.774 194.224 133.888 192.777 135.442C191.316 137.034 189.307 138.014 187.245 138.582C185.521 139.045 183.739 139.284 181.956 139.301C175.747 139.306 169.539 139.307 163.331 139.301C163.321 126.901 163.344 114.503 163.319 102.105ZM171.342 109.281C171.351 111.897 171.335 114.514 171.35 117.132C174.069 117.115 176.789 117.135 179.508 117.121C180.742 117.055 182.019 116.88 183.109 116.259C183.971 115.772 184.625 114.901 184.753 113.911C184.935 112.794 184.742 111.541 183.925 110.707C182.943 109.697 181.478 109.374 180.119 109.293C177.194 109.269 174.268 109.293 171.342 109.281ZM171.341 123.968C171.345 126.685 171.348 129.405 171.339 132.124C173.939 132.148 176.541 132.126 179.143 132.134C180.441 132.118 181.753 132.206 183.04 131.975C184.167 131.794 185.329 131.371 186.09 130.483C186.857 129.595 187.017 128.331 186.825 127.21C186.672 126.258 186.073 125.404 185.245 124.914C184.121 124.232 182.776 124.017 181.48 123.973C178.1 123.963 174.721 123.972 171.341 123.968Z" fill="black"/>
</svg>
