<svg width="250" height="250" viewBox="0 0 250 250" fill="none" xmlns="http://www.w3.org/2000/svg">
<g clip-path="url(#clip0_1_16)">
<path d="M125.1 250.4C194.136 250.4 250.1 194.436 250.1 125.4C250.1 56.3644 194.136 0.399994 125.1 0.399994C56.0644 0.399994 0.0999756 56.3644 0.0999756 125.4C0.0999756 194.436 56.0644 250.4 125.1 250.4Z" fill="#F5C518"/>
<path d="M53.2 87.3V161.2H34V87.3H53.2ZM94.2 87.3L89.8 121.9L87.1 103.1C86.3 97.1 85.5 91.8 84.8 87.3H59.9V161.2H76.7V112.4L83.8 161.2H95.8L102.5 111.3V161.2H119.3V87.3H94.2ZM125.8 161.3V87.4H140.1C149.4 87.4 154.8 87.8 158 88.7C161.3 89.6 163.8 91 165.5 92.9C167.2 94.8 168.3 97 168.7 99.4C169.1 101.8 169.4 106.5 169.4 113.5V139.5C169.4 146.1 169 150.6 168.4 152.8C167.8 155 166.7 156.8 165.1 158C163.6 159.3 161.6 160.2 159.4 160.7C157.1 161.2 153.7 161.5 149.1 161.5H125.8V161.3ZM145 100V148.5C147.8 148.5 149.4 148 150.1 146.9C150.7 145.8 151.1 142.8 151.1 137.8V109.2C151.1 105.9 151 103.7 150.8 102.8C150.6 101.8 150.1 101.2 149.3 100.7C148.5 100.2 147.1 100 145 100ZM194.4 87.3V111.4C195.9 109.6 197.7 108.3 199.5 107.5C201.4 106.6 204.2 106.2 206.4 106.2C208.6 106.2 211.1 106.6 213 107.4C214.9 108.2 216.3 109.3 217.3 110.7C218.3 112.1 218.9 113.5 219.1 114.9C219.3 116.3 219.4 119.2 219.4 123.6V144.3C219.4 148.7 219.1 152 218.5 154.2C217.9 156.4 216.5 158.3 214.3 159.8C212.1 161.4 209.5 162.2 206.4 162.2C203.3 162.2 201.4 161.7 199.5 160.8C197.6 159.8 195.9 158.4 194.3 156.5L193.1 161.2H175.8V87.3H194.3H194.4ZM200.9 124.4C200.9 121.3 200.7 119.2 200.3 118.3C199.9 117.4 198.3 116.9 197.1 116.9C195.9 116.9 195.2 117.3 194.9 118.2C194.6 119.1 194.4 121.1 194.4 124.5V144C194.4 147.3 194.6 149.3 195 150.2C195.4 151.1 196.1 151.6 197.3 151.6C198.5 151.6 200 151.1 200.4 150.2C200.8 149.3 200.9 147 200.9 143.4V124.4Z" fill="#161616"/>
</g>
<defs>
<clipPath id="clip0_1_16">
<rect width="250" height="250" fill="white"/>
</clipPath>
</defs>
</svg>
