<svg width="250" height="250" viewBox="0 0 250 250" fill="none" xmlns="http://www.w3.org/2000/svg">
<g clip-path="url(#clip0_1_2)">
<path d="M125.1 250.4C194.136 250.4 250.1 194.436 250.1 125.4C250.1 56.3644 194.136 0.399994 125.1 0.399994C56.0644 0.399994 0.0999756 56.3644 0.0999756 125.4C0.0999756 194.436 56.0644 250.4 125.1 250.4Z" fill="white"/>
<path d="M60.2986 40.0174C60.1242 40.2122 60.5162 40.866 61.581 42.1247C62.2764 42.928 62.711 43.7737 63.2327 45.2725C63.6233 46.4016 64.082 47.5088 64.2557 47.7262C64.5165 48.0733 64.5364 47.9883 64.5584 46.9456V45.7946L66.1038 47.9224C68.4502 51.1581 69.907 52.8751 70.8846 53.57C71.3851 53.8958 71.6899 54.2209 71.5595 54.2642C71.2121 54.3725 68.1674 52.7001 66.7545 51.615C66.0371 51.0717 65.3651 50.6155 65.2559 50.6155C65.1475 50.6155 64.7994 50.289 64.4953 49.898C64.2124 49.507 63.5397 48.9006 63.0399 48.5536C61.8227 47.7064 60.5396 46.4902 60.2348 45.9044C60.0186 45.4688 59.3451 45.1868 59.3451 45.5346C59.3451 45.8817 61.0819 48.2051 62.4288 49.638C66.5582 54.0467 70.7768 56.2397 82.0569 59.758C84.448 60.4968 86.5563 61.2349 86.7519 61.4084C86.9263 61.5607 87.2744 61.6903 87.5133 61.6903C87.7302 61.6903 88.0769 61.798 88.2505 61.9064C88.5334 62.0799 88.5107 62.126 88.1846 62.126C87.9237 62.126 87.8153 62.2535 87.8585 62.5141C87.9237 62.9051 88.9892 63.2543 91.0323 63.537C91.9446 63.6673 92.1615 63.6248 92.1615 63.3641C92.1615 63.017 91.5313 62.7762 90.597 62.7762C90.2496 62.7762 89.9888 62.6693 89.9888 62.5609C89.9888 62.4305 90.2085 62.3838 90.4907 62.4277C90.7515 62.4929 91.6618 62.6445 92.4876 62.796C94.4442 63.1219 94.9901 63.34 94.9901 63.7523C94.9901 64.2085 95.5756 64.404 95.9662 64.0781C96.1838 63.8826 96.2923 63.884 96.2923 64.0583C96.2923 64.1879 96.3993 64.297 96.5078 64.297C96.6382 64.297 96.7276 64.1454 96.7276 63.9712C96.7276 63.5589 96.5085 63.5561 100.16 64.1213C102.334 64.4472 103.137 64.6668 102.811 64.7751C102.117 65.0358 102.508 65.3829 103.486 65.3829C103.986 65.3829 104.333 65.4913 104.333 65.6216C104.333 65.8171 104.832 65.8383 106.072 65.7512C107.202 65.6641 107.855 65.6853 107.942 65.8376C108.029 65.968 108.398 66.0324 108.79 65.9673C109.159 65.9021 110.18 65.9913 111.006 66.1429C113.179 66.5559 119.025 66.8824 132.109 67.3386C153.256 68.0767 168.667 69.6598 174.449 71.7012C177.013 72.6129 180.883 74.5686 181.6 75.3067C182.73 76.5009 183.076 77.4784 182.945 79.0849C182.88 79.8889 182.88 80.6071 182.945 80.6723C183.576 81.3027 184.969 80.0638 184.969 78.8696C184.969 78.6302 185.422 78.0444 186.009 77.545C188.356 75.4816 188.705 74.3292 188.445 69.6159C188.271 66.4454 188.225 66.2286 186.813 61.5813C184.966 55.5002 184.534 54.5666 182.317 52.2213C179.709 49.485 177.339 47.9203 174.1 46.8132C173.318 46.5525 171.665 45.9462 170.405 45.468C168.645 44.7739 167.384 44.4693 164.819 44.1003C161.189 43.5789 153.387 43.2106 150.953 43.4493C150.084 43.5364 146.606 43.4493 142.802 43.2106C138.478 42.9719 135.826 42.8848 135.196 43.0144C134.653 43.1235 133.718 43.2085 133.109 43.2304C132.218 43.2304 131.807 43.3629 131.046 43.9274C130.155 44.5791 129.523 44.7732 127.045 45.1861C123.046 45.8378 120.459 46.357 119.373 46.7268C118.525 47.0306 117.135 47.2268 114.983 47.3572C109.093 47.7262 105.747 48.0315 105.008 48.2709C104.508 48.4225 102.594 48.465 99.3987 48.3998C95.5083 48.3127 94.5108 48.3573 94.3152 48.5961C94.1195 48.8128 94.2053 48.878 94.727 48.878C96.0094 48.878 107.465 49.7691 107.573 49.8767C107.682 49.9858 105.638 49.898 99.7914 49.5289C98.0738 49.4198 96.5539 49.3972 96.4454 49.4623C96.0321 49.723 92.9442 49.6798 89.9888 49.3759C86.3379 49.0069 82.8182 48.3984 79.558 47.5732C78.0367 47.2042 76.2531 46.9244 74.9927 46.8592C72.6675 46.7508 70.1878 45.9455 66.6886 44.1867C64.3847 43.0356 64.1267 42.9938 64.1267 43.9274V44.6414L63.4284 43.7758C63.0371 43.3197 62.5607 42.5795 62.365 42.1452C61.9737 41.32 60.5155 39.8219 60.2986 40.0174ZM63.5482 62.6041C59.5096 62.7946 55.7942 65.9382 53.1274 71.5489C51.5408 74.9149 51.2594 76.219 51.1502 80.6935C51.0637 84.2111 51.1056 84.9294 51.6053 87.8612C52.6708 93.9635 52.9523 94.6789 55.191 96.8719C57.5601 99.2179 63.4525 102.432 66.7347 103.17C67.8647 103.41 69.1903 103.714 69.6688 103.845C71.4943 104.301 73.9931 104.472 80.2088 104.559C86.1855 104.667 86.6853 104.647 87.4892 104.256C88.0542 103.974 89.2515 103.756 90.9685 103.626C92.4026 103.496 93.921 103.301 94.3343 103.17C94.7469 103.062 95.6394 102.952 96.2909 102.952C96.965 102.952 97.6399 102.823 97.7704 102.692C98.2914 102.172 100.768 101.628 103.137 101.497C104.462 101.432 105.704 101.304 105.921 101.195C106.638 100.805 106.29 100.586 105.117 100.717C104.443 100.782 103.791 100.738 103.552 100.608C103.204 100.39 103.311 100.37 104.137 100.348C104.68 100.348 105.745 100.283 106.506 100.195C107.679 100.087 107.812 100.02 107.486 99.781C106.682 99.1945 107.377 99.0437 110.985 99.0437C114.223 99.0437 115.158 98.8914 114.201 98.5223C114.006 98.4572 113.2 98.3693 112.417 98.3693C111.613 98.3481 111.266 98.285 111.613 98.2631C111.982 98.2206 112.767 98.0669 113.397 97.9585C114.006 97.8275 117.832 97.6759 121.874 97.6327C125.917 97.5895 129.348 97.5448 129.5 97.5229C129.696 97.5229 129.74 97.3706 129.653 97.088C129.566 96.7834 129.61 96.6559 129.849 96.6559C130.022 96.6559 130.437 96.3088 130.763 95.8958C131.415 95.0494 131.586 95.0905 131.869 96.1983L132.066 96.9151L133.63 96.9817C134.869 97.0249 135.284 96.9605 135.697 96.6559C135.979 96.4391 136.565 96.199 136.999 96.1119L137.804 95.9589L137.674 97.2211C137.544 98.2411 137.567 98.4366 137.827 98.3495C138.001 98.2843 138.693 98.1101 139.388 97.9578L140.628 97.7191L140.15 97.0887C139.845 96.7409 139.281 96.3945 138.781 96.2649L137.913 96.0453L139.216 96.0028C139.926 95.9806 140.636 95.9806 141.346 96.0028C141.802 96.024 142.15 95.9397 142.15 95.8101C142.15 95.6798 142.021 95.5693 141.891 95.548C141.738 95.5261 141.26 95.5027 140.847 95.4807C140.435 95.4382 139.739 95.1988 139.325 94.9601C138.913 94.6995 138.392 94.4855 138.196 94.4855C137.978 94.4855 137.804 94.3743 137.804 94.2659C137.804 94.1137 138.456 94.0499 139.608 94.0931C141.368 94.1583 141.39 94.1576 141.456 94.7441C141.543 95.417 141.542 95.417 142.021 95.2222C142.1 95.1914 142.166 95.1327 142.206 95.057C142.246 94.9813 142.257 94.8938 142.237 94.8107C142.106 94.4636 142.499 94.1781 142.825 94.3956C142.955 94.4607 143.476 94.5479 143.955 94.5911C145.128 94.6562 150.844 95.1131 152.322 95.2654C153.104 95.3518 153.451 95.4829 153.451 95.7003C153.451 96.0694 153.713 96.0892 154.039 95.7634C154.213 95.5898 155.062 95.6146 157.126 95.8101C159.647 96.0488 159.974 96.1112 159.974 96.4802C159.974 96.7409 160.125 96.874 160.473 96.8953C160.733 96.8953 161.647 96.981 162.472 97.0681C163.32 97.1552 164.123 97.1963 164.254 97.1319C164.406 97.088 164.886 96.4384 165.32 95.7003C166.168 94.2886 166.885 93.3961 167.168 93.3961C167.277 93.3961 167.296 93.5512 167.231 93.7248C167.144 93.8983 167.21 94.0506 167.34 94.0506C167.493 94.0506 167.58 94.2235 167.537 94.419C167.494 94.6789 167.688 94.8312 168.188 94.9396C168.992 95.1138 169.363 95.3518 168.819 95.3518C168.624 95.3518 168.447 95.4815 168.447 95.6337C168.447 95.786 169.732 96.3307 171.6 96.9385C173.6 97.6114 174.751 98.0881 174.751 98.2836C174.751 98.5004 174.077 98.3488 172.208 97.7191C167.775 96.199 165.843 95.8732 165.843 96.6332C165.843 96.959 166.188 97.112 167.863 97.503C168.949 97.7637 169.991 97.9578 170.165 97.9578C170.317 97.9578 170.731 98.1972 171.079 98.4791C171.427 98.7837 173.163 99.4991 175.076 100.13C177.011 100.781 178.729 101.475 179.077 101.78C179.424 102.062 180.033 102.454 180.446 102.606C181.815 103.192 183.773 104.95 185.251 106.926C187.381 109.793 187.358 109.685 186.184 109.685C185.641 109.685 184.096 109.533 182.748 109.359C181.401 109.186 179.707 109.033 178.991 109.011C177.469 108.967 165.037 109.208 160.386 109.36L157.232 109.469L156.734 108.404C156.452 107.817 155.647 106.776 154.93 106.059C153.691 104.843 153.627 104.819 153.345 105.232C153.171 105.471 152.517 106.384 151.886 107.231L150.737 108.815L149.324 108.861C148.542 108.861 147.735 108.883 147.54 108.861C147.062 108.819 147.042 109.077 147.476 109.881L147.779 110.488L145.563 110.641C139.52 111.053 126.699 112.639 122.396 113.53C121.439 113.725 119.417 113.877 117.591 113.898C114.33 113.941 114.027 114.028 111.963 115.223C111.592 115.418 111.309 115.463 111.048 115.333C110.809 115.18 110.592 115.223 110.44 115.419C110.201 115.701 109.419 115.83 103.681 116.438C102.421 116.569 100.314 116.852 98.967 117.069C96.6191 117.46 96.4865 117.46 95.2481 117.069C93.9437 116.656 89.8803 116.112 86.4024 115.874L84.4459 115.721L83.296 116.763C82.6438 117.328 81.7506 118.305 81.2721 118.935C80.6199 119.826 80.2726 120.111 79.86 120.111C78.9689 120.111 71.0356 121.346 65.2758 122.388C59.0601 123.517 56.7144 123.737 54.889 123.367C52.9976 122.977 52.9742 122.954 53.0614 120.565C53.1479 118.546 53.1274 118.482 52.6056 118.221C51.4104 117.613 50.2591 117.958 48.6946 119.37C48.326 119.696 47.8914 119.848 47.2825 119.848C46.7827 119.827 45.8696 120.065 45.1529 120.413L43.8698 121.001L43.9336 122.129C43.9762 122.737 43.9109 123.452 43.7805 123.67C43.6068 123.93 43.5636 125.082 43.6508 126.993C43.738 129.316 43.672 130.164 43.3686 131.293L43 132.684L44.0428 134.161C46.1291 137.093 47.6086 139.328 47.6086 139.566C47.6086 139.697 48.2579 140.394 49.0831 141.11C52.6701 144.26 54.1921 145.107 57.7132 145.845C61.4513 146.649 62.0595 146.605 64.3854 145.367C65.4502 144.781 66.69 143.975 67.1466 143.541C67.7116 143.02 69.3208 142.173 72.4066 140.805C77.2101 138.677 77.8162 138.438 77.8162 138.72C77.8162 138.807 78.1211 141.738 78.4911 145.191C79.2518 152.444 79.4914 159.395 79.1653 164.737C78.9044 168.929 78.7087 169.514 75.7526 175.073C71.1667 183.695 65.6692 192.035 61.5179 196.661C60.7785 197.508 59.6492 198.963 59.019 199.918C57.8238 201.72 55.6057 204.133 52.8445 206.609C51.9109 207.455 51.3012 208.171 51.3664 208.345C51.4317 208.518 52.108 208.865 52.8686 209.125C53.6073 209.407 54.3233 209.713 54.4537 209.822C54.8011 210.169 55.2342 210.037 56.8427 209.168L58.4072 208.302L59.0389 208.736C59.7995 209.236 61.1698 209.277 62.3218 208.843C62.7783 208.669 63.6914 208.474 64.3656 208.431C65.7125 208.301 66.5816 207.933 67.9937 206.847C68.5155 206.456 69.1896 206.087 69.5157 206.001C70.1466 205.87 75.6016 200.351 78.5145 196.877C79.4268 195.813 81.7088 193.402 83.6214 191.535C86.2947 188.885 87.4899 187.888 89.0112 186.976C91.2059 185.672 92.9442 184.088 93.1611 183.154C93.2483 182.828 93.5297 182.153 93.8126 181.654C94.486 180.503 95.2474 177.551 95.0517 176.812C94.9865 176.509 94.6604 175.771 94.3343 175.162C93.7693 174.163 93.7282 173.816 93.6197 171.035C93.4241 166.149 92.6415 163.587 90.1639 159.744C88.7298 157.529 88.3803 156.747 87.4892 153.88C86.0111 148.95 85.5773 144.323 86.3159 140.696C86.6633 138.893 86.837 138.654 88.2938 137.807C89.0537 137.351 90.0547 136.634 90.5332 136.199L91.4236 135.376L95.6401 134.898C97.9653 134.616 100.573 134.268 101.399 134.095C102.246 133.921 104.114 133.53 105.549 133.248C107.005 132.944 109.072 132.424 110.138 132.076C111.203 131.707 112.701 131.271 113.484 131.097C115.005 130.749 120.199 130.252 120.372 130.426C120.437 130.492 120.503 133.597 120.482 137.333C120.482 143.196 120.417 144.781 119.917 149.102C119.069 156.508 118.895 158.829 118.677 166.995C118.482 175.117 118.419 175.485 117.092 176.441C116.136 177.135 115.158 177.009 112.267 175.727C110.833 175.097 107.811 173.857 105.529 172.945C103.269 172.033 100.052 170.624 98.4211 169.82C96.7694 168.995 95.4211 168.384 95.4211 168.449C95.4211 168.514 96.2469 169.579 97.2685 170.816C98.2893 172.055 99.1159 173.119 99.1159 173.184C99.1159 173.249 98.9216 173.317 98.6607 173.317C98.2694 173.317 98.2467 173.359 98.5509 173.772C98.7465 174.054 98.8124 174.487 98.7472 174.943C98.66 175.53 98.7245 175.727 99.1584 176.009C99.4419 176.205 99.8999 176.747 100.183 177.225C100.444 177.68 100.9 178.266 101.182 178.483C101.466 178.7 101.877 179.222 102.117 179.635C102.334 180.047 103.072 180.807 103.768 181.328C104.463 181.849 105.137 182.523 105.266 182.806C105.397 183.132 106.03 183.608 106.768 183.978C108.485 184.846 111.004 187.061 111.417 188.038C111.656 188.647 112.136 189.125 113.527 190.037C114.636 190.775 116.59 192.469 118.764 194.619C122.719 198.528 122.937 198.659 126.154 198.463C128.24 198.312 129.285 197.919 130.524 196.79C131.023 196.334 131.632 195.858 131.849 195.728C132.066 195.598 132.609 194.969 133.023 194.317C133.435 193.644 134.065 192.948 134.391 192.753C135.304 192.21 136.934 189.905 136.934 189.167C136.934 188.081 137.346 187.389 138.781 186.043C140.041 184.87 140.304 184.476 141.087 182.544C142.304 179.59 142.736 177.682 143.127 173.881C143.605 169.19 143.564 163.523 143.021 159.983C142.13 154.206 138.739 138.113 137.718 134.898C136.87 132.228 136.066 128.753 136.066 127.753C136.066 127.514 136.52 127.492 138.302 127.601C139.933 127.709 141.215 127.667 143.084 127.385C145.301 127.059 146.063 127.038 148.411 127.255C149.91 127.386 151.192 127.536 151.235 127.601C151.409 127.752 154.757 138.633 155.322 140.848C156.496 145.387 156.518 145.714 156.757 157.137C156.866 163.109 156.973 170.189 157.017 172.882C157.06 177.42 157.105 177.919 157.648 179.917C158.343 182.458 159.104 184.11 160.668 186.369C161.299 187.259 162.255 188.822 162.798 189.821C163.885 191.841 165.299 193.511 167.125 194.901C169.515 196.747 171.841 198.247 173.275 198.899C174.992 199.68 176.382 200.917 177.751 202.849C178.316 203.631 179.121 204.697 179.555 205.24C179.99 205.783 180.532 206.609 180.772 207.087C181.185 207.955 181.315 208.042 183.663 208.737C184.749 209.062 187.748 209.125 189.421 208.843C190.356 208.69 190.706 208.475 192.206 207.02C194.226 205.065 195.183 203.698 195.183 202.721C195.183 201.2 195.398 200.744 196.289 200.396C196.855 200.179 197.137 199.92 197.137 199.659C197.137 198.291 195.703 192.772 194.963 191.338C194.486 190.383 188.249 181.96 183.011 175.163C177.447 167.975 175.49 164.844 174.339 161.456C173.969 160.306 172.58 152.422 171.71 146.277C171.08 141.868 169.861 137.503 167.949 132.661C167.296 131.01 166.84 129.666 166.949 129.666C167.47 129.666 178.664 132.793 179.316 133.119C179.729 133.336 181.424 134.245 183.055 135.157C184.685 136.091 186.271 136.831 186.553 136.831C186.879 136.831 188.247 137.591 189.857 138.677L192.618 140.523L194.053 140.413C196.118 140.218 196.506 140.131 197.376 139.524C198.615 138.676 199.355 138.546 200.333 139.002C202.224 139.893 203.528 140.045 202.377 139.242C200.66 138.047 200.486 137.46 201.486 135.961C202.682 134.137 202.81 134.008 204.048 133.378C206.026 132.379 206.158 132.142 206.809 128.58C207.114 126.843 207.526 125.146 207.7 124.799C208.2 123.756 208.092 123.085 207.245 122.282C206.81 121.869 206.092 120.933 205.613 120.217C204.94 119.174 204.746 118.676 204.746 117.916C204.746 117.069 204.658 116.896 204.028 116.505C203.538 116.204 203.02 115.949 202.483 115.744C201.548 115.418 200.094 113.878 200.29 113.443C200.374 113.249 200.453 113.053 200.529 112.855C200.703 112.421 198.942 111.466 197.203 111.053C195.465 110.641 195.487 110.64 195.791 110.293C195.943 110.097 195.941 109.424 195.811 108.164C195.158 102.214 192.747 98.0456 188.727 95.939C187.857 95.4829 187.097 95.0267 187.032 94.8971C186.619 94.2667 181.49 92.3117 178.665 91.7259C177.774 91.5523 176.011 91.1188 174.751 90.7498C173.49 90.4027 171.558 90.0301 170.428 89.8998C167.189 89.5952 162.821 88.8585 161.386 88.4024C160.669 88.1849 158.974 87.7946 157.604 87.5559C156.235 87.2952 155.062 87.0133 154.996 86.9049C154.909 86.7746 154.387 86.7944 153.67 86.9248C152.845 87.0771 151.606 87.0785 149.65 86.9049C148.107 86.7526 144.281 86.6641 141.174 86.6853C136.392 86.7073 135.088 86.645 132.653 86.254C131.089 85.9933 128.981 85.7964 127.982 85.7964C125.59 85.7744 118.546 85.0583 119.807 84.9492C120.003 84.9492 120.654 84.821 121.263 84.6907C122.262 84.4732 122.329 84.4272 122.133 83.993C121.916 83.5368 121.808 83.5163 118.745 83.5382C116.136 83.5382 115.527 83.6048 115.331 83.8867C115.114 84.1693 114.895 84.1899 113.939 84.0163C112.918 83.7996 112.852 83.7557 113.178 83.495C113.526 83.2343 113.527 83.1692 113.245 82.9737C113.071 82.8653 112.766 82.7541 112.57 82.7541C112.287 82.7541 98.7026 81.4083 93.0519 80.8225C91.9432 80.6921 90.967 80.5639 90.9018 80.4768C90.8366 80.4116 90.9451 80.3677 91.1407 80.3677C91.3584 80.3677 91.5094 80.2799 91.5094 80.1715C91.5094 79.8457 90.4035 79.7607 88.8815 79.9987C87.8167 80.151 87.2489 80.1495 86.9008 79.976C86.4882 79.8018 86.6208 79.7826 87.5558 79.8697C89.6201 80.0865 88.7489 79.5857 86.5754 79.3243C85.4015 79.1727 84.185 79.0198 83.8809 78.9765C83.5405 78.9175 83.211 78.8077 82.9033 78.6507C82.6864 78.5204 80.2953 78.1102 77.6007 77.7412C74.9055 77.3722 71.8834 76.8267 70.8619 76.5229C67.3408 75.5241 64.1047 73.8949 62.2353 72.2233L61.2556 71.3563L61.6044 70.5296C62.3211 68.8141 63.2341 67.8153 64.8639 67.0333C67.1026 65.9474 68.1248 65.7725 72.4931 65.6421C76.47 65.5557 77.4058 65.3836 76.9492 64.8623C76.7316 64.5577 73.6032 64.0788 72.038 64.0788C71.0597 64.0788 68.6246 63.6014 66.3859 62.9498C65.4656 62.6788 64.5067 62.562 63.5482 62.6041ZM126.284 83.5021C126.123 83.4964 125.963 83.5085 125.805 83.5382C124.522 83.7557 123.785 84.0581 123.133 84.6007L122.482 85.1221L123.525 85.1454C124.634 85.1454 125.22 84.9287 126.024 84.2126C126.53 83.7564 126.618 83.5304 126.284 83.5021ZM167.231 90.2384C167.503 90.2221 167.808 90.3014 168.384 90.4643C169.036 90.6598 169.752 90.7484 169.969 90.6839C170.187 90.618 170.447 90.6605 170.534 90.8128C170.642 91.0083 170.318 91.031 169.231 90.9226C168.275 90.8135 167.796 90.8334 167.796 90.9857C167.796 91.116 168.056 91.269 168.404 91.3342C169.99 91.6812 170.252 91.8562 168.882 91.7259C168.1 91.6387 166.926 91.575 166.274 91.553C165.144 91.553 165.08 91.5743 165.015 92.1176C164.949 92.6169 164.797 92.7239 163.731 92.9414C162.276 93.2233 162.473 93.2445 161.386 92.7452C160.408 92.2677 158.254 91.7464 155.58 91.3342C154.581 91.1819 154.083 91.0537 154.431 91.0317C154.801 91.0317 156.8 91.2492 158.888 91.553C162.756 92.0963 163.841 92.204 163.602 91.9653C163.537 91.9001 161.842 91.5091 159.821 91.1181L156.17 90.4013L158.299 90.3779C160.168 90.3566 160.495 90.4232 161.06 90.8362C161.539 91.1833 161.777 91.2492 161.951 91.0749C162.103 90.9233 162.754 90.8766 163.775 90.9424C165.144 91.0508 165.514 91.0097 166.274 90.5968C166.719 90.3687 166.959 90.2547 167.231 90.2384ZM136.418 93.8707C136.526 93.8672 136.62 93.8863 136.673 93.9408C136.761 94.006 136.675 94.1576 136.501 94.2659C136.089 94.5266 135.914 94.528 135.74 94.2893C135.643 94.1101 136.094 93.8813 136.418 93.8707ZM171.77 94.5082C171.811 94.494 171.882 94.5826 172.013 94.7675C172.164 94.963 172.49 95.1358 172.708 95.1358C173.055 95.1358 173.079 95.1783 172.797 95.3518C172.623 95.4602 172.427 95.5473 172.362 95.5473C171.927 95.5041 171.71 95.2442 171.71 94.8532C171.721 94.6364 171.729 94.5217 171.77 94.5082ZM143.758 95.7867C143.324 95.7867 143.021 96.1551 143.021 96.6764C143.021 96.7848 143.519 96.8719 144.127 96.8719C145.17 96.8719 145.216 96.8507 144.955 96.5036C144.52 95.939 144.258 95.7867 143.758 95.7867ZM187.64 108.752C187.792 108.687 188.163 108.837 188.467 109.054C188.946 109.423 188.945 109.468 188.554 109.446C187.945 109.446 187.249 108.904 187.64 108.752Z" fill="black"/>
</g>
<defs>
<clipPath id="clip0_1_2">
<rect width="250" height="250" fill="white"/>
</clipPath>
</defs>
</svg>
