<svg width="250" height="250" viewBox="0 0 250 250" fill="none" xmlns="http://www.w3.org/2000/svg">
<g clip-path="url(#clip0_1_34)">
<path d="M5.31693 160.91C20.7408 212.359 68.4526 249.844 124.921 249.844C193.869 249.844 249.765 193.948 249.765 125C249.765 56.0508 193.869 0.156052 124.921 0.156052C58.7587 0.156052 4.62038 51.625 0.344604 116.706C8.42463 130.272 11.5752 138.663 5.31693 160.91Z" fill="url(#paint0_linear_1_34)"/>
<path d="M118.49 93.7322C118.49 93.9423 118.49 94.1523 118.501 94.3495L87.9508 138.727C83.002 138.502 78.0361 139.37 73.3274 141.31C71.2832 142.146 69.3253 143.18 67.4817 144.396L0.399266 116.781C0.399266 116.781 -1.15244 142.317 5.31587 161.349L52.7394 180.917C55.1206 191.558 62.4205 200.892 73.1903 205.382C90.8109 212.744 111.128 204.354 118.458 186.725C120.365 182.117 121.255 177.284 121.126 172.462L164.838 141.224C165.191 141.235 165.555 141.246 165.909 141.246C192.067 141.246 213.328 119.921 213.328 93.7322C213.328 67.5418 192.067 46.2358 165.909 46.2358C139.762 46.2358 118.49 67.5418 118.49 93.7322ZM111.16 183.661C105.487 197.281 89.8347 203.743 76.2294 198.074C69.9529 195.459 65.2142 190.669 62.4805 184.957L77.9172 191.355C87.9508 195.534 99.4621 190.776 103.633 180.746C107.817 170.705 103.07 159.174 93.042 154.995L77.0856 148.383C83.2421 146.047 90.2419 145.961 96.782 148.683C103.376 151.426 108.492 156.591 111.203 163.193C113.914 169.794 113.903 177.081 111.16 183.661ZM165.909 125.386C148.495 125.386 134.318 111.187 134.318 93.7322C134.318 76.2916 148.495 62.0883 165.909 62.0883C183.334 62.0883 197.511 76.2916 197.511 93.7322C197.511 111.187 183.334 125.386 165.909 125.386ZM142.237 93.684C142.237 80.5534 152.867 69.9036 165.963 69.9036C179.069 69.9036 189.699 80.5534 189.699 93.684C189.699 106.816 179.069 117.456 165.963 117.456C152.867 117.456 142.237 106.816 142.237 93.684Z" fill="white"/>
</g>
<defs>
<linearGradient id="paint0_linear_1_34" x1="125.055" y1="0.156052" x2="125.055" y2="249.845" gradientUnits="userSpaceOnUse">
<stop stop-color="#111D2E"/>
<stop offset="0.212" stop-color="#051839"/>
<stop offset="0.407" stop-color="#0A1B48"/>
<stop offset="0.581" stop-color="#132E62"/>
<stop offset="0.738" stop-color="#144B7E"/>
<stop offset="0.873" stop-color="#136497"/>
<stop offset="1" stop-color="#1387B8"/>
</linearGradient>
<clipPath id="clip0_1_34">
<rect width="250" height="250" fill="white" transform="translate(0.000488281)"/>
</clipPath>
</defs>
</svg>
